<mxfile host="app.diagrams.net" modified="2023-10-16T13:38:41.941Z" agent="Mozilla/5.0 (Windows NT 10.0; Win64; x64) AppleWebKit/537.36 (KHTML, like Gecko) Chrome/118.0.0.0 Safari/537.36" etag="aaoBm6xRPuljyO8nAPtY" version="22.0.4" type="github">
  <diagram name="Page-1" id="U_qMfQ_dqHaO0jfc5E2Y">
    <mxGraphModel dx="4033" dy="1258" grid="1" gridSize="10" guides="1" tooltips="1" connect="1" arrows="1" fold="1" page="1" pageScale="1" pageWidth="850" pageHeight="1100" math="0" shadow="0">
      <root>
        <mxCell id="0" />
        <mxCell id="1" parent="0" />
        <mxCell id="lzudfqjjJk2nV8cWTDHu-16" style="edgeStyle=orthogonalEdgeStyle;rounded=0;orthogonalLoop=1;jettySize=auto;html=1;exitX=0;exitY=0.5;exitDx=0;exitDy=0;entryX=1;entryY=0.5;entryDx=0;entryDy=0;" parent="1" source="lzudfqjjJk2nV8cWTDHu-1" target="lzudfqjjJk2nV8cWTDHu-4" edge="1">
          <mxGeometry relative="1" as="geometry">
            <Array as="points">
              <mxPoint x="60" y="115" />
              <mxPoint x="60" y="210" />
            </Array>
          </mxGeometry>
        </mxCell>
        <mxCell id="lzudfqjjJk2nV8cWTDHu-17" style="edgeStyle=orthogonalEdgeStyle;rounded=0;orthogonalLoop=1;jettySize=auto;html=1;exitX=0;exitY=0.75;exitDx=0;exitDy=0;entryX=0.75;entryY=0;entryDx=0;entryDy=0;" parent="1" source="lzudfqjjJk2nV8cWTDHu-26" target="lzudfqjjJk2nV8cWTDHu-2" edge="1">
          <mxGeometry relative="1" as="geometry" />
        </mxCell>
        <mxCell id="lzudfqjjJk2nV8cWTDHu-18" style="edgeStyle=orthogonalEdgeStyle;rounded=0;orthogonalLoop=1;jettySize=auto;html=1;exitX=0.5;exitY=1;exitDx=0;exitDy=0;entryX=0.5;entryY=0;entryDx=0;entryDy=0;" parent="1" source="lzudfqjjJk2nV8cWTDHu-1" target="lzudfqjjJk2nV8cWTDHu-15" edge="1">
          <mxGeometry relative="1" as="geometry">
            <Array as="points">
              <mxPoint x="360" y="310" />
              <mxPoint x="80" y="310" />
              <mxPoint x="80" y="640" />
            </Array>
          </mxGeometry>
        </mxCell>
        <mxCell id="lzudfqjjJk2nV8cWTDHu-19" style="edgeStyle=orthogonalEdgeStyle;rounded=0;orthogonalLoop=1;jettySize=auto;html=1;exitX=0;exitY=0;exitDx=0;exitDy=0;entryX=0.25;entryY=0;entryDx=0;entryDy=0;" parent="1" source="lzudfqjjJk2nV8cWTDHu-28" edge="1" target="lzudfqjjJk2nV8cWTDHu-24">
          <mxGeometry relative="1" as="geometry">
            <mxPoint x="710" y="297.5000000000001" as="targetPoint" />
            <Array as="points">
              <mxPoint x="880" y="170" />
            </Array>
            <mxPoint x="550" y="170" as="sourcePoint" />
          </mxGeometry>
        </mxCell>
        <mxCell id="lzudfqjjJk2nV8cWTDHu-21" style="edgeStyle=orthogonalEdgeStyle;rounded=0;orthogonalLoop=1;jettySize=auto;html=1;exitX=1;exitY=0.5;exitDx=0;exitDy=0;entryX=0;entryY=0.5;entryDx=0;entryDy=0;" parent="1" source="lzudfqjjJk2nV8cWTDHu-1" target="lzudfqjjJk2nV8cWTDHu-6" edge="1">
          <mxGeometry relative="1" as="geometry">
            <Array as="points">
              <mxPoint x="920" y="115" />
              <mxPoint x="920" y="220" />
            </Array>
          </mxGeometry>
        </mxCell>
        <mxCell id="lzudfqjjJk2nV8cWTDHu-38" style="edgeStyle=orthogonalEdgeStyle;rounded=0;orthogonalLoop=1;jettySize=auto;html=1;exitX=0.5;exitY=1;exitDx=0;exitDy=0;entryX=0.455;entryY=-0.003;entryDx=0;entryDy=0;entryPerimeter=0;" parent="1" target="lzudfqjjJk2nV8cWTDHu-31" edge="1">
          <mxGeometry relative="1" as="geometry">
            <mxPoint x="350" y="310" as="sourcePoint" />
            <mxPoint x="540" y="760" as="targetPoint" />
          </mxGeometry>
        </mxCell>
        <mxCell id="lzudfqjjJk2nV8cWTDHu-1" value="&lt;div style=&quot;font-size: 17px;&quot;&gt;&lt;b style=&quot;&quot;&gt;&lt;font style=&quot;font-size: 17px;&quot;&gt;int main()&amp;nbsp; &amp;nbsp;&lt;/font&gt;&lt;/b&gt;&lt;/div&gt;&lt;div style=&quot;font-size: 13px;&quot;&gt;&lt;font style=&quot;font-size: 13px;&quot;&gt;vector&amp;lt;string&amp;gt;&amp;nbsp; &amp;nbsp; &amp;nbsp; args;&amp;nbsp;&lt;/font&gt;&lt;/div&gt;&lt;div style=&quot;font-size: 13px;&quot;&gt;&amp;nbsp; &amp;nbsp; logger&amp;nbsp; &amp;nbsp; &amp;nbsp; &amp;nbsp; &amp;nbsp; &amp;nbsp; &amp;nbsp; *log;&lt;/div&gt;&lt;div&gt;&amp;nbsp; &amp;nbsp; bool&amp;nbsp; &amp;nbsp; &amp;nbsp; &amp;nbsp; &amp;nbsp; &amp;nbsp; &amp;nbsp; &amp;nbsp; status;&lt;/div&gt;&lt;div&gt;....&lt;/div&gt;&lt;div&gt;.....&lt;/div&gt;&lt;div&gt;backup_util* instance;&lt;/div&gt;" style="rounded=0;whiteSpace=wrap;html=1;" parent="1" vertex="1">
          <mxGeometry x="250" y="40" width="220" height="150" as="geometry" />
        </mxCell>
        <mxCell id="flPDdCEBCAuYjrAuzokw-34" style="edgeStyle=orthogonalEdgeStyle;rounded=0;orthogonalLoop=1;jettySize=auto;html=1;exitX=0;exitY=0.75;exitDx=0;exitDy=0;entryX=1.001;entryY=0.422;entryDx=0;entryDy=0;entryPerimeter=0;" edge="1" parent="1" source="lzudfqjjJk2nV8cWTDHu-2" target="lzudfqjjJk2nV8cWTDHu-64">
          <mxGeometry relative="1" as="geometry">
            <mxPoint x="-1210" y="960" as="targetPoint" />
          </mxGeometry>
        </mxCell>
        <mxCell id="flPDdCEBCAuYjrAuzokw-38" style="edgeStyle=orthogonalEdgeStyle;rounded=0;orthogonalLoop=1;jettySize=auto;html=1;exitX=1;exitY=0.75;exitDx=0;exitDy=0;entryX=0;entryY=0.5;entryDx=0;entryDy=0;" edge="1" parent="1" source="lzudfqjjJk2nV8cWTDHu-2" target="lzudfqjjJk2nV8cWTDHu-60">
          <mxGeometry relative="1" as="geometry">
            <Array as="points">
              <mxPoint x="-140" y="562" />
              <mxPoint x="-140" y="1580" />
            </Array>
          </mxGeometry>
        </mxCell>
        <mxCell id="flPDdCEBCAuYjrAuzokw-40" style="edgeStyle=orthogonalEdgeStyle;rounded=0;orthogonalLoop=1;jettySize=auto;html=1;exitX=0;exitY=0.25;exitDx=0;exitDy=0;entryX=0;entryY=0.25;entryDx=0;entryDy=0;" edge="1" parent="1" source="lzudfqjjJk2nV8cWTDHu-2" target="lzudfqjjJk2nV8cWTDHu-57">
          <mxGeometry relative="1" as="geometry" />
        </mxCell>
        <mxCell id="lzudfqjjJk2nV8cWTDHu-2" value="&lt;span style=&quot;color: rgb(0, 0, 0); font-family: Helvetica; font-size: 12px; font-style: normal; font-variant-ligatures: normal; font-variant-caps: normal; font-weight: 400; letter-spacing: normal; orphans: 2; text-align: center; text-indent: 0px; text-transform: none; widows: 2; word-spacing: 0px; -webkit-text-stroke-width: 0px; background-color: rgb(251, 251, 251); text-decoration-thickness: initial; text-decoration-style: initial; text-decoration-color: initial; float: none; display: inline !important;&quot;&gt;instance = new backup_util();&lt;/span&gt;&lt;br style=&quot;border-color: var(--border-color); color: rgb(0, 0, 0); font-family: Helvetica; font-size: 12px; font-style: normal; font-variant-ligatures: normal; font-variant-caps: normal; font-weight: 400; letter-spacing: normal; orphans: 2; text-align: center; text-indent: 0px; text-transform: none; widows: 2; word-spacing: 0px; -webkit-text-stroke-width: 0px; background-color: rgb(251, 251, 251); text-decoration-thickness: initial; text-decoration-style: initial; text-decoration-color: initial;&quot;&gt;&lt;div style=&quot;line-height: 19px;&quot;&gt;&lt;div style=&quot;font-family: Consolas, &amp;quot;Courier New&amp;quot;, monospace; font-size: 14px; color: rgb(204, 204, 204); background-color: rgb(31, 31, 31);&quot;&gt;&amp;nbsp; &amp;nbsp; &amp;nbsp; &amp;nbsp; instance-&amp;gt;&lt;span style=&quot;color: #dcdcaa;&quot;&gt;load_backup_util&lt;/span&gt; ();&lt;/div&gt;&lt;div style=&quot;font-family: Consolas, &amp;quot;Courier New&amp;quot;, monospace; font-size: 14px; color: rgb(204, 204, 204);&quot;&gt;&lt;span style=&quot;background-color: rgb(255, 255, 255);&quot;&gt;&lt;br&gt;&lt;/span&gt;&lt;/div&gt;&lt;div style=&quot;font-family: Consolas, &amp;quot;Courier New&amp;quot;, monospace; font-size: 14px;&quot;&gt;&lt;div style=&quot;line-height: 19px;&quot;&gt;&lt;font style=&quot;background-color: rgb(0, 0, 0);&quot; color=&quot;#ffffff&quot;&gt;commit (instance-&amp;gt;get_last_dir_struct(), args)&lt;/font&gt;&lt;/div&gt;&lt;/div&gt;&lt;div style=&quot;line-height: 19px;&quot;&gt;&lt;font face=&quot;Consolas, Courier New, monospace&quot;&gt;&lt;br&gt;&lt;/font&gt;&lt;/div&gt;&lt;div style=&quot;line-height: 19px;&quot;&gt;&lt;font face=&quot;Consolas, Courier New, monospace&quot;&gt;set_commit_message, set commit time to be present time&lt;/font&gt;&lt;br&gt;&lt;/div&gt;&lt;div style=&quot;line-height: 19px;&quot;&gt;&lt;div style=&quot;color: rgb(204, 204, 204); background-color: rgb(31, 31, 31); font-family: Consolas, &amp;quot;Courier New&amp;quot;, monospace; font-size: 14px; line-height: 19px;&quot;&gt;get_mod_files(&lt;span style=&quot;color: #9cdcfe;&quot;&gt;last_ver&lt;/span&gt;.&lt;span style=&quot;color: #dcdcaa;&quot;&gt;get_files&lt;/span&gt;())&lt;/div&gt;&lt;div style=&quot;color: rgb(204, 204, 204); font-family: Consolas, &amp;quot;Courier New&amp;quot;, monospace; font-size: 14px; line-height: 19px;&quot;&gt;&lt;span style=&quot;background-color: rgb(255, 255, 255);&quot;&gt;&lt;br&gt;&lt;/span&gt;&lt;/div&gt;&lt;div style=&quot;font-family: Consolas, &amp;quot;Courier New&amp;quot;, monospace; font-size: 14px; line-height: 19px;&quot;&gt;&lt;div style=&quot;line-height: 19px;&quot;&gt;&lt;span style=&quot;background-color: rgb(0, 0, 0);&quot;&gt;&lt;font color=&quot;#ffffff&quot;&gt;add_dir_version (curr_status)&lt;/font&gt;&lt;/span&gt;&lt;/div&gt;&lt;div style=&quot;line-height: 19px;&quot;&gt;&lt;span style=&quot;background-color: rgb(0, 0, 0);&quot;&gt;&lt;font color=&quot;#ffffff&quot;&gt;&lt;br&gt;&lt;/font&gt;&lt;/span&gt;&lt;/div&gt;&lt;div style=&quot;line-height: 19px;&quot;&gt;&lt;br&gt;&lt;/div&gt;&lt;/div&gt;&lt;/div&gt;&lt;div style=&quot;font-family: Consolas, &amp;quot;Courier New&amp;quot;, monospace; font-size: 14px; color: rgb(204, 204, 204); background-color: rgb(31, 31, 31);&quot;&gt;&lt;/div&gt;&lt;/div&gt;" style="rounded=0;whiteSpace=wrap;html=1;strokeColor=#000000;" parent="1" vertex="1">
          <mxGeometry x="-510" y="330" width="360" height="310" as="geometry" />
        </mxCell>
        <mxCell id="flPDdCEBCAuYjrAuzokw-25" style="edgeStyle=orthogonalEdgeStyle;rounded=0;orthogonalLoop=1;jettySize=auto;html=1;exitX=0;exitY=0.5;exitDx=0;exitDy=0;entryX=0.045;entryY=-0.004;entryDx=0;entryDy=0;entryPerimeter=0;" edge="1" parent="1" source="lzudfqjjJk2nV8cWTDHu-4" target="flPDdCEBCAuYjrAuzokw-17">
          <mxGeometry relative="1" as="geometry">
            <mxPoint x="-980" y="1980" as="targetPoint" />
            <Array as="points">
              <mxPoint x="-980" y="210" />
              <mxPoint x="-980" y="1989" />
            </Array>
          </mxGeometry>
        </mxCell>
        <mxCell id="lzudfqjjJk2nV8cWTDHu-4" value="&lt;br&gt;instance = new backup_util();&lt;br&gt;&lt;span style=&quot;border-color: var(--border-color); orphans: 2; text-align: center; text-indent: 0px; widows: 2; text-decoration-thickness: initial; text-decoration-style: initial; text-decoration-color: initial; background-color: rgb(251, 251, 251); float: none; display: inline !important;&quot;&gt;&lt;b style=&quot;font-size: 15px;&quot;&gt;init (vector&amp;lt;string&amp;gt; &amp;amp;args) {&lt;/b&gt;&lt;br&gt;&lt;br&gt;&lt;div style=&quot;color: rgb(204, 204, 204); background-color: rgb(31, 31, 31); font-family: Consolas, &amp;quot;Courier New&amp;quot;, monospace; font-size: 14px; line-height: 19px;&quot;&gt;init_dir_i(&lt;span style=&quot;color: #9cdcfe;&quot;&gt;args&lt;/span&gt;&lt;span style=&quot;color: #dcdcaa;&quot;&gt;[&lt;/span&gt;&lt;span style=&quot;color: #b5cea8;&quot;&gt;2&lt;/span&gt;&lt;span style=&quot;color: #dcdcaa;&quot;&gt;]&lt;/span&gt;, &lt;span style=&quot;color: #9cdcfe;&quot;&gt;log&lt;/span&gt;);&lt;/div&gt;&lt;div style=&quot;&quot;&gt;&lt;b&gt;&amp;nbsp; &amp;nbsp; &amp;nbsp; &amp;nbsp; vector&amp;lt;string&amp;gt; ag;&lt;/b&gt;&lt;/div&gt;&lt;div style=&quot;&quot;&gt;&lt;span style=&quot;font-size: 15px;&quot;&gt;&lt;b&gt;&amp;nbsp; &amp;nbsp; &amp;nbsp; &amp;nbsp; ag.push_back(&quot;fill_details&quot;);&lt;/b&gt;&lt;/span&gt;&lt;/div&gt;&lt;div style=&quot;font-weight: bold;&quot;&gt;&lt;br&gt;&lt;/div&gt;&lt;div style=&quot;color: rgb(204, 204, 204); background-color: rgb(31, 31, 31); font-family: Consolas, &amp;quot;Courier New&amp;quot;, monospace; font-size: 14px; line-height: 19px;&quot;&gt;&lt;div&gt;&amp;nbsp; &amp;nbsp; &amp;nbsp; &amp;nbsp; remoteutil(&lt;span style=&quot;color: #b5cea8;&quot;&gt;1&lt;/span&gt;,&lt;span style=&quot;color: #9cdcfe;&quot;&gt;ag&lt;/span&gt;);&lt;/div&gt;&lt;div&gt;&lt;/div&gt;&lt;/div&gt;&lt;br&gt;&lt;div style=&quot;font-size: 15px;&quot;&gt;&lt;/div&gt;&lt;div&gt;&amp;nbsp; &amp;nbsp; &amp;nbsp; &amp;nbsp; ag.clear();&lt;/div&gt;&lt;div&gt;&amp;nbsp; &amp;nbsp; &amp;nbsp; &amp;nbsp; ag.push_back(&quot;initialize&quot;);&lt;/div&gt;&lt;div&gt;&lt;div style=&quot;color: rgb(204, 204, 204); background-color: rgb(31, 31, 31); font-family: Consolas, &amp;quot;Courier New&amp;quot;, monospace; font-size: 14px; line-height: 19px;&quot;&gt;&lt;div&gt;&amp;nbsp; &amp;nbsp; &amp;nbsp; &amp;nbsp; remoteutil(&lt;span style=&quot;color: #b5cea8;&quot;&gt;2&lt;/span&gt;,&lt;span style=&quot;color: #9cdcfe;&quot;&gt;ag&lt;/span&gt;);&lt;/div&gt;&lt;div&gt;&lt;/div&gt;&lt;/div&gt;&lt;/div&gt;&lt;/span&gt;&lt;br style=&quot;border-color: var(--border-color); color: rgb(0, 0, 0); font-family: Helvetica; font-size: 12px; font-style: normal; font-variant-ligatures: normal; font-variant-caps: normal; font-weight: 400; letter-spacing: normal; orphans: 2; text-align: center; text-indent: 0px; text-transform: none; widows: 2; word-spacing: 0px; -webkit-text-stroke-width: 0px; background-color: rgb(251, 251, 251); text-decoration-thickness: initial; text-decoration-style: initial; text-decoration-color: initial;&quot;&gt;&lt;span style=&quot;background-color: initial;&quot;&gt;create_directories(&quot;.backup_util/firebase&quot;);&lt;/span&gt;&lt;br&gt;&lt;div&gt;&lt;b&gt;&lt;font style=&quot;font-size: 17px;&quot;&gt;}&lt;/font&gt;&lt;/b&gt;&lt;/div&gt;" style="rounded=0;whiteSpace=wrap;html=1;" parent="1" vertex="1">
          <mxGeometry x="-950" y="75" width="350" height="260" as="geometry" />
        </mxCell>
        <mxCell id="lzudfqjjJk2nV8cWTDHu-6" value="instance = new backup_util();&lt;br style=&quot;border-color: var(--border-color);&quot;&gt;&lt;div style=&quot;border-color: var(--border-color); line-height: 19px;&quot;&gt;&lt;div style=&quot;border-color: var(--border-color); font-family: Consolas, &amp;quot;Courier New&amp;quot;, monospace; font-size: 14px; color: rgb(204, 204, 204); background-color: rgb(31, 31, 31);&quot;&gt;&amp;nbsp; &amp;nbsp; &amp;nbsp; &amp;nbsp;instance-&amp;gt;load_backup_util&lt;span style=&quot;border-color: var(--border-color);&quot;&gt;&amp;nbsp;&lt;/span&gt;();&lt;/div&gt;&lt;div&gt;&lt;br&gt;&lt;/div&gt;&lt;div&gt;&lt;div style=&quot;color: rgb(204, 204, 204); background-color: rgb(31, 31, 31); font-family: Consolas, &amp;quot;Courier New&amp;quot;, monospace; font-size: 14px; line-height: 19px;&quot;&gt;&amp;nbsp; &amp;nbsp; &amp;nbsp; &amp;nbsp; &amp;nbsp; &amp;nbsp; &amp;nbsp; git_log (&lt;span style=&quot;color: #569cd6;&quot;&gt;void&lt;/span&gt;)&lt;span style=&quot;white-space: pre;&quot;&gt;&#x9;&lt;/span&gt;&amp;nbsp; &amp;nbsp; &amp;nbsp; &amp;nbsp; &amp;nbsp;&amp;nbsp;&lt;/div&gt;&lt;/div&gt;&lt;div style=&quot;color: rgb(204, 204, 204); background-color: rgb(31, 31, 31); font-family: Consolas, &amp;quot;Courier New&amp;quot;, monospace; font-size: 14px; line-height: 19px;&quot;&gt;{&lt;/div&gt;&lt;div style=&quot;color: rgb(204, 204, 204); background-color: rgb(31, 31, 31); font-family: Consolas, &amp;quot;Courier New&amp;quot;, monospace; font-size: 14px; line-height: 19px;&quot;&gt;for all versions we print the commit message and commit message&lt;/div&gt;&lt;div style=&quot;color: rgb(204, 204, 204); background-color: rgb(31, 31, 31); font-family: Consolas, &amp;quot;Courier New&amp;quot;, monospace; font-size: 14px; line-height: 19px;&quot;&gt;}&lt;/div&gt;&lt;/div&gt;" style="rounded=0;whiteSpace=wrap;html=1;" parent="1" vertex="1">
          <mxGeometry x="1240" y="80" width="350" height="280" as="geometry" />
        </mxCell>
        <mxCell id="flPDdCEBCAuYjrAuzokw-22" style="edgeStyle=orthogonalEdgeStyle;rounded=0;orthogonalLoop=1;jettySize=auto;html=1;exitX=0;exitY=0.75;exitDx=0;exitDy=0;" edge="1" parent="1">
          <mxGeometry relative="1" as="geometry">
            <mxPoint x="-89" y="865" as="sourcePoint" />
            <mxPoint x="-120" y="1990" as="targetPoint" />
            <Array as="points">
              <mxPoint x="-120" y="865" />
            </Array>
          </mxGeometry>
        </mxCell>
        <mxCell id="flPDdCEBCAuYjrAuzokw-50" style="edgeStyle=orthogonalEdgeStyle;rounded=0;orthogonalLoop=1;jettySize=auto;html=1;exitX=0;exitY=1;exitDx=0;exitDy=0;entryX=1;entryY=0.5;entryDx=0;entryDy=0;" edge="1" parent="1" source="lzudfqjjJk2nV8cWTDHu-15" target="flPDdCEBCAuYjrAuzokw-48">
          <mxGeometry relative="1" as="geometry" />
        </mxCell>
        <mxCell id="lzudfqjjJk2nV8cWTDHu-15" value="&lt;br&gt;&lt;span style=&quot;border-color: var(--border-color); color: rgb(0, 0, 0); font-family: Helvetica; font-size: 12px; font-style: normal; font-variant-ligatures: normal; font-variant-caps: normal; font-weight: 400; letter-spacing: normal; orphans: 2; text-align: center; text-indent: 0px; text-transform: none; widows: 2; word-spacing: 0px; -webkit-text-stroke-width: 0px; background-color: rgb(251, 251, 251); text-decoration-thickness: initial; text-decoration-style: initial; text-decoration-color: initial; float: none; display: inline !important;&quot;&gt;instance = new backup_util();&lt;/span&gt;&lt;br style=&quot;border-color: var(--border-color); color: rgb(0, 0, 0); font-family: Helvetica; font-size: 12px; font-style: normal; font-variant-ligatures: normal; font-variant-caps: normal; font-weight: 400; letter-spacing: normal; orphans: 2; text-align: center; text-indent: 0px; text-transform: none; widows: 2; word-spacing: 0px; -webkit-text-stroke-width: 0px; background-color: rgb(251, 251, 251); text-decoration-thickness: initial; text-decoration-style: initial; text-decoration-color: initial;&quot;&gt;&lt;div style=&quot;border-color: var(--border-color); line-height: 19px;&quot;&gt;&lt;div style=&quot;border-color: var(--border-color); font-style: normal; font-variant-ligatures: normal; font-variant-caps: normal; font-weight: 400; letter-spacing: normal; orphans: 2; text-align: center; text-indent: 0px; text-transform: none; widows: 2; word-spacing: 0px; -webkit-text-stroke-width: 0px; text-decoration-thickness: initial; text-decoration-style: initial; text-decoration-color: initial; font-family: Consolas, &amp;quot;Courier New&amp;quot;, monospace; font-size: 14px; color: rgb(204, 204, 204); background-color: rgb(31, 31, 31);&quot;&gt;&amp;nbsp; &amp;nbsp; &amp;nbsp; &amp;nbsp; instance-&amp;gt;&lt;span style=&quot;border-color: var(--border-color); color: rgb(220, 220, 170);&quot;&gt;load_backup_util&lt;/span&gt;&lt;span&gt;&amp;nbsp;&lt;/span&gt;();&lt;/div&gt;&lt;div style=&quot;border-color: var(--border-color); line-height: 19px;&quot;&gt;&lt;br&gt;&lt;/div&gt;&lt;div style=&quot;border-color: var(--border-color); line-height: 19px;&quot;&gt;&lt;br&gt;&lt;/div&gt;&lt;div style=&quot;color: rgb(204, 204, 204); background-color: rgb(31, 31, 31); font-family: Consolas, &amp;quot;Courier New&amp;quot;, monospace; font-size: 14px; line-height: 19px;&quot;&gt;restore (&lt;span style=&quot;color: #569cd6;&quot;&gt;int&lt;/span&gt; &lt;span style=&quot;color: #9cdcfe;&quot;&gt;vn&lt;/span&gt;)&lt;/div&gt;&lt;div style=&quot;border-color: var(--border-color); line-height: 19px;&quot;&gt;&lt;br&gt;&lt;/div&gt;&lt;div style=&quot;border-color: var(--border-color); line-height: 19px;&quot;&gt;for i=1;i&amp;lt;= version_num;i++{&lt;/div&gt;&lt;div style=&quot;border-color: var(--border-color); line-height: 19px;&quot;&gt;&amp;nbsp; &amp;nbsp; we find corresponding version&#39;s&lt;/div&gt;&lt;div style=&quot;border-color: var(--border-color); line-height: 19px;&quot;&gt;tar.gz file as stored in save_files in commit&lt;/div&gt;&lt;div style=&quot;border-color: var(--border-color); line-height: 19px;&quot;&gt;with argument as &quot;&lt;b&gt;download_file&lt;/b&gt;&quot;&lt;/div&gt;&lt;div style=&quot;color: rgb(204, 204, 204); background-color: rgb(31, 31, 31); font-family: Consolas, &amp;quot;Courier New&amp;quot;, monospace; font-size: 14px; line-height: 19px;&quot;&gt;remoteutil(&lt;span style=&quot;color: #b5cea8;&quot;&gt;5&lt;/span&gt;,&lt;span style=&quot;color: #9cdcfe;&quot;&gt;arguments&lt;/span&gt;);&lt;/div&gt;&lt;div style=&quot;color: rgb(204, 204, 204); font-family: Consolas, &amp;quot;Courier New&amp;quot;, monospace; font-size: 14px; line-height: 19px;&quot;&gt;&lt;span style=&quot;background-color: rgb(255, 255, 255);&quot;&gt;&lt;br&gt;&lt;/span&gt;&lt;/div&gt;&lt;div style=&quot;color: rgb(204, 204, 204); font-family: Consolas, &amp;quot;Courier New&amp;quot;, monospace; font-size: 14px; line-height: 19px;&quot;&gt;&lt;div style=&quot;line-height: 19px;&quot;&gt;&lt;span style=&quot;background-color: rgb(0, 0, 0);&quot;&gt;this&lt;span style=&quot;&quot;&gt;-&amp;gt;&lt;/span&gt;&lt;span style=&quot;color: rgb(156, 220, 254);&quot;&gt;version_list&lt;/span&gt;&lt;span style=&quot;color: rgb(220, 220, 170);&quot;&gt;[&lt;/span&gt;&lt;span style=&quot;color: rgb(156, 220, 254);&quot;&gt;i&lt;/span&gt;&lt;span style=&quot;color: rgb(220, 220, 170);&quot;&gt;]&lt;/span&gt;&lt;span style=&quot;&quot;&gt;.&lt;/span&gt;load_files(&lt;span style=&quot;color: #9cdcfe;&quot;&gt;i&lt;/span&gt;);&lt;/span&gt;&lt;/div&gt;&lt;/div&gt;&lt;/div&gt;" style="rounded=0;whiteSpace=wrap;html=1;" parent="1" vertex="1">
          <mxGeometry x="-99" y="640" width="360" height="300" as="geometry" />
        </mxCell>
        <mxCell id="flPDdCEBCAuYjrAuzokw-44" style="edgeStyle=orthogonalEdgeStyle;rounded=0;orthogonalLoop=1;jettySize=auto;html=1;exitX=0;exitY=0.25;exitDx=0;exitDy=0;entryX=1;entryY=0.25;entryDx=0;entryDy=0;" edge="1" parent="1" target="lzudfqjjJk2nV8cWTDHu-57">
          <mxGeometry relative="1" as="geometry">
            <mxPoint x="932" y="415.7" as="sourcePoint" />
            <mxPoint x="720" y="1150" as="targetPoint" />
            <Array as="points">
              <mxPoint x="780" y="416" />
              <mxPoint x="780" y="1124" />
            </Array>
          </mxGeometry>
        </mxCell>
        <mxCell id="lzudfqjjJk2nV8cWTDHu-24" value="&lt;br&gt;instance = new backup_util();&lt;br style=&quot;border-color: var(--border-color);&quot;&gt;&lt;div style=&quot;border-color: var(--border-color); line-height: 19px;&quot;&gt;&lt;div style=&quot;border-color: var(--border-color); font-family: Consolas, &amp;quot;Courier New&amp;quot;, monospace; font-size: 14px; color: rgb(204, 204, 204); background-color: rgb(31, 31, 31);&quot;&gt;&amp;nbsp; &amp;nbsp; &amp;nbsp; &amp;nbsp; instance-&amp;gt;&lt;span style=&quot;border-color: var(--border-color); color: rgb(220, 220, 170);&quot;&gt;load_backup_util&lt;/span&gt;&lt;span style=&quot;border-color: var(--border-color);&quot;&gt;&amp;nbsp;&lt;/span&gt;();&lt;/div&gt;&lt;div style=&quot;border-color: var(--border-color); line-height: 19px;&quot;&gt;&lt;br style=&quot;border-color: var(--border-color); color: rgb(0, 0, 0); font-family: Helvetica; font-size: 12px; font-style: normal; font-variant-ligatures: normal; font-variant-caps: normal; font-weight: 400; letter-spacing: normal; orphans: 2; text-align: center; text-indent: 0px; text-transform: none; widows: 2; word-spacing: 0px; -webkit-text-stroke-width: 0px; background-color: rgb(251, 251, 251); text-decoration-thickness: initial; text-decoration-style: initial; text-decoration-color: initial;&quot;&gt;&lt;br&gt;&lt;div style=&quot;color: rgb(204, 204, 204); background-color: rgb(31, 31, 31); font-family: Consolas, &amp;quot;Courier New&amp;quot;, monospace; font-size: 14px; line-height: 19px;&quot;&gt;get_last_dir_struct() {&lt;/div&gt;&lt;div style=&quot;font-family: Consolas, &amp;quot;Courier New&amp;quot;, monospace; font-size: 14px; line-height: 19px;&quot;&gt;&lt;div style=&quot;line-height: 19px;&quot;&gt;&lt;div style=&quot;color: rgb(204, 204, 204); background-color: rgb(31, 31, 31);&quot;&gt;&amp;nbsp; &amp;nbsp; return &lt;span style=&quot;color: #569cd6;&quot;&gt;this&lt;/span&gt;-&amp;gt;&lt;span style=&quot;color: #9cdcfe;&quot;&gt;version_list&lt;/span&gt;&lt;span style=&quot;color: #dcdcaa;&quot;&gt;[&lt;/span&gt;&lt;span style=&quot;color: #9cdcfe;&quot;&gt;version_list&lt;/span&gt;.&lt;span style=&quot;color: #dcdcaa;&quot;&gt;size&lt;/span&gt;()&lt;span style=&quot;color: #d4d4d4;&quot;&gt;-&lt;/span&gt;&lt;span style=&quot;color: #b5cea8;&quot;&gt;1&lt;/span&gt;&lt;span style=&quot;color: #dcdcaa;&quot;&gt;]&lt;/span&gt;;&lt;/div&gt;&lt;div style=&quot;color: rgb(204, 204, 204); background-color: rgb(31, 31, 31);&quot;&gt;}&lt;/div&gt;&lt;div style=&quot;color: rgb(204, 204, 204);&quot;&gt;&lt;span style=&quot;background-color: rgb(255, 255, 255);&quot;&gt;&lt;br&gt;&lt;/span&gt;&lt;/div&gt;&lt;div style=&quot;&quot;&gt;&lt;div style=&quot;color: rgb(204, 204, 204); line-height: 19px;&quot;&gt;&lt;span style=&quot;background-color: rgb(0, 0, 0);&quot;&gt;get_mod_files(&lt;span style=&quot;color: #9cdcfe;&quot;&gt;last_ver&lt;/span&gt;.&lt;span style=&quot;color: #dcdcaa;&quot;&gt;get_files&lt;/span&gt;())&lt;/span&gt;&lt;/div&gt;&lt;div style=&quot;color: rgb(204, 204, 204); line-height: 19px;&quot;&gt;&lt;span style=&quot;background-color: rgb(0, 0, 0);&quot;&gt;&lt;br&gt;&lt;/span&gt;&lt;/div&gt;&lt;div style=&quot;line-height: 19px;&quot;&gt;&lt;span style=&quot;background-color: rgb(255, 255, 255);&quot;&gt;we simply print all the files that have been added/deleted/modified&lt;/span&gt;&lt;/div&gt;&lt;/div&gt;&lt;div style=&quot;color: rgb(204, 204, 204); background-color: rgb(31, 31, 31);&quot;&gt;&lt;/div&gt;&lt;/div&gt;&lt;/div&gt;&lt;/div&gt;&lt;/div&gt;" style="rounded=0;whiteSpace=wrap;html=1;" parent="1" vertex="1">
          <mxGeometry x="792" y="350" width="360" height="310" as="geometry" />
        </mxCell>
        <mxCell id="lzudfqjjJk2nV8cWTDHu-25" value="&lt;b&gt;&lt;font style=&quot;font-size: 16px;&quot;&gt;args[1]==&quot;init&quot;&lt;/font&gt;&lt;/b&gt;" style="text;html=1;align=center;verticalAlign=middle;resizable=0;points=[];autosize=1;strokeColor=none;fillColor=none;" parent="1" vertex="1">
          <mxGeometry x="-300" y="175" width="130" height="30" as="geometry" />
        </mxCell>
        <mxCell id="lzudfqjjJk2nV8cWTDHu-27" value="&lt;b style=&quot;border-color: var(--border-color); color: rgb(0, 0, 0); font-family: Helvetica; font-size: 12px; font-style: normal; font-variant-ligatures: normal; font-variant-caps: normal; letter-spacing: normal; orphans: 2; text-align: center; text-indent: 0px; text-transform: none; widows: 2; word-spacing: 0px; -webkit-text-stroke-width: 0px; background-color: rgb(251, 251, 251); text-decoration-thickness: initial; text-decoration-style: initial; text-decoration-color: initial;&quot;&gt;&lt;font style=&quot;border-color: var(--border-color); font-size: 16px;&quot;&gt;args[1]==&quot;restore&quot;&lt;/font&gt;&lt;/b&gt;" style="text;whiteSpace=wrap;html=1;" parent="1" vertex="1">
          <mxGeometry x="200" y="340" width="140" height="40" as="geometry" />
        </mxCell>
        <mxCell id="lzudfqjjJk2nV8cWTDHu-28" value="&lt;b style=&quot;border-color: var(--border-color); color: rgb(0, 0, 0); font-family: Helvetica; font-size: 12px; font-style: normal; font-variant-ligatures: normal; font-variant-caps: normal; letter-spacing: normal; orphans: 2; text-align: center; text-indent: 0px; text-transform: none; widows: 2; word-spacing: 0px; -webkit-text-stroke-width: 0px; background-color: rgb(251, 251, 251); text-decoration-thickness: initial; text-decoration-style: initial; text-decoration-color: initial;&quot;&gt;&lt;font style=&quot;border-color: var(--border-color); font-size: 16px;&quot;&gt;args[1]==&quot;status&quot;&lt;/font&gt;&lt;/b&gt;" style="text;whiteSpace=wrap;html=1;" parent="1" vertex="1">
          <mxGeometry x="470" y="170" width="140" height="40" as="geometry" />
        </mxCell>
        <mxCell id="lzudfqjjJk2nV8cWTDHu-30" value="&lt;b style=&quot;border-color: var(--border-color); color: rgb(0, 0, 0); font-family: Helvetica; font-size: 12px; font-style: normal; font-variant-ligatures: normal; font-variant-caps: normal; letter-spacing: normal; orphans: 2; text-align: center; text-indent: 0px; text-transform: none; widows: 2; word-spacing: 0px; -webkit-text-stroke-width: 0px; background-color: rgb(251, 251, 251); text-decoration-thickness: initial; text-decoration-style: initial; text-decoration-color: initial;&quot;&gt;&lt;font style=&quot;border-color: var(--border-color); font-size: 16px;&quot;&gt;args[1]==&quot;log&quot;&lt;/font&gt;&lt;/b&gt;" style="text;whiteSpace=wrap;html=1;" parent="1" vertex="1">
          <mxGeometry x="540" y="80" width="140" height="40" as="geometry" />
        </mxCell>
        <mxCell id="flPDdCEBCAuYjrAuzokw-21" style="edgeStyle=orthogonalEdgeStyle;rounded=0;orthogonalLoop=1;jettySize=auto;html=1;exitX=0.5;exitY=1;exitDx=0;exitDy=0;" edge="1" parent="1" target="flPDdCEBCAuYjrAuzokw-17">
          <mxGeometry relative="1" as="geometry">
            <mxPoint x="740" y="820" as="sourcePoint" />
            <mxPoint x="810" y="1860" as="targetPoint" />
            <Array as="points">
              <mxPoint x="811" y="820" />
            </Array>
          </mxGeometry>
        </mxCell>
        <mxCell id="lzudfqjjJk2nV8cWTDHu-31" value="" style="rounded=0;whiteSpace=wrap;html=1;" parent="1" vertex="1">
          <mxGeometry x="360" y="640" width="380" height="310" as="geometry" />
        </mxCell>
        <mxCell id="lzudfqjjJk2nV8cWTDHu-39" value="&lt;b style=&quot;border-color: var(--border-color); color: rgb(0, 0, 0); font-family: Helvetica; font-size: 12px; font-style: normal; font-variant-ligatures: normal; font-variant-caps: normal; letter-spacing: normal; orphans: 2; text-align: center; text-indent: 0px; text-transform: none; widows: 2; word-spacing: 0px; -webkit-text-stroke-width: 0px; background-color: rgb(251, 251, 251); text-decoration-thickness: initial; text-decoration-style: initial; text-decoration-color: initial;&quot;&gt;&lt;font style=&quot;border-color: var(--border-color); font-size: 16px;&quot;&gt;args[1]==&quot;push&quot;&lt;/font&gt;&lt;/b&gt;" style="text;whiteSpace=wrap;html=1;" parent="1" vertex="1">
          <mxGeometry x="380" y="340" width="140" height="40" as="geometry" />
        </mxCell>
        <mxCell id="lzudfqjjJk2nV8cWTDHu-43" value="" style="edgeStyle=orthogonalEdgeStyle;rounded=0;orthogonalLoop=1;jettySize=auto;html=1;exitX=0;exitY=0.75;exitDx=0;exitDy=0;entryX=0.75;entryY=0;entryDx=0;entryDy=0;" parent="1" edge="1">
          <mxGeometry relative="1" as="geometry">
            <mxPoint x="250" y="170" as="sourcePoint" />
            <mxPoint x="-5" y="147.5" as="targetPoint" />
            <Array as="points">
              <mxPoint x="140" y="170.5" />
              <mxPoint x="140" y="147.5" />
            </Array>
          </mxGeometry>
        </mxCell>
        <mxCell id="lzudfqjjJk2nV8cWTDHu-26" value="&lt;b style=&quot;border-color: var(--border-color); color: rgb(0, 0, 0); font-family: Helvetica; font-size: 12px; font-style: normal; font-variant-ligatures: normal; font-variant-caps: normal; letter-spacing: normal; orphans: 2; text-align: center; text-indent: 0px; text-transform: none; widows: 2; word-spacing: 0px; -webkit-text-stroke-width: 0px; background-color: rgb(251, 251, 251); text-decoration-thickness: initial; text-decoration-style: initial; text-decoration-color: initial;&quot;&gt;&lt;font style=&quot;border-color: var(--border-color); font-size: 16px;&quot;&gt;args[1]==&quot;commit&quot;&lt;/font&gt;&lt;/b&gt;" style="text;whiteSpace=wrap;html=1;" parent="1" vertex="1">
          <mxGeometry x="-110" y="130" width="140" height="40" as="geometry" />
        </mxCell>
        <mxCell id="lzudfqjjJk2nV8cWTDHu-48" value="&lt;div style=&quot;color: rgb(204, 204, 204); background-color: rgb(31, 31, 31); font-family: Consolas, &amp;quot;Courier New&amp;quot;, monospace; font-size: 14px; line-height: 19px;&quot;&gt;&lt;div&gt;init_dir_i (&lt;span style=&quot;color: #4ec9b0;&quot;&gt;string&lt;/span&gt; &lt;span style=&quot;color: #9cdcfe;&quot;&gt;path&lt;/span&gt;, &lt;span style=&quot;color: #4ec9b0;&quot;&gt;logger&lt;/span&gt; &lt;span style=&quot;color: #d4d4d4;&quot;&gt;*&lt;/span&gt;&lt;span style=&quot;color: #9cdcfe;&quot;&gt;new_instance&lt;/span&gt;)&lt;/div&gt;&lt;div&gt;&lt;/div&gt;&lt;/div&gt;&lt;span style=&quot;color: rgb(0, 0, 0); font-family: Helvetica; font-size: 12px; font-style: normal; font-variant-ligatures: normal; font-variant-caps: normal; font-weight: 400; letter-spacing: normal; orphans: 2; text-align: center; text-indent: 0px; text-transform: none; widows: 2; word-spacing: 0px; -webkit-text-stroke-width: 0px; background-color: rgb(251, 251, 251); text-decoration-thickness: initial; text-decoration-style: initial; text-decoration-color: initial; float: none; display: inline !important;&quot;&gt;We create and initialize a new backup_util class&amp;nbsp;&amp;nbsp;&lt;/span&gt;&lt;br style=&quot;border-color: var(--border-color); color: rgb(0, 0, 0); font-family: Helvetica; font-size: 12px; font-style: normal; font-variant-ligatures: normal; font-variant-caps: normal; font-weight: 400; letter-spacing: normal; orphans: 2; text-align: center; text-indent: 0px; text-transform: none; widows: 2; word-spacing: 0px; -webkit-text-stroke-width: 0px; background-color: rgb(251, 251, 251); text-decoration-thickness: initial; text-decoration-style: initial; text-decoration-color: initial;&quot;&gt;&lt;div style=&quot;border-color: var(--border-color); color: rgb(0, 0, 0); font-family: Helvetica; font-size: 12px; font-style: normal; font-variant-ligatures: normal; font-variant-caps: normal; font-weight: 400; letter-spacing: normal; orphans: 2; text-align: center; text-indent: 0px; text-transform: none; widows: 2; word-spacing: 0px; -webkit-text-stroke-width: 0px; background-color: rgb(251, 251, 251); text-decoration-thickness: initial; text-decoration-style: initial; text-decoration-color: initial;&quot;&gt;based upon the file, we passed&lt;/div&gt;&lt;div style=&quot;border-color: var(--border-color); color: rgb(0, 0, 0); font-family: Helvetica; font-size: 12px; font-style: normal; font-variant-ligatures: normal; font-variant-caps: normal; font-weight: 400; letter-spacing: normal; orphans: 2; text-align: center; text-indent: 0px; text-transform: none; widows: 2; word-spacing: 0px; -webkit-text-stroke-width: 0px; background-color: rgb(251, 251, 251); text-decoration-thickness: initial; text-decoration-style: initial; text-decoration-color: initial;&quot;&gt;we create new directories&lt;/div&gt;&lt;div style=&quot;border-color: var(--border-color); color: rgb(0, 0, 0); font-family: Helvetica; font-size: 12px; font-style: normal; font-variant-ligatures: normal; font-variant-caps: normal; font-weight: 400; letter-spacing: normal; orphans: 2; text-align: center; text-indent: 0px; text-transform: none; widows: 2; word-spacing: 0px; -webkit-text-stroke-width: 0px; background-color: rgb(251, 251, 251); text-decoration-thickness: initial; text-decoration-style: initial; text-decoration-color: initial;&quot;&gt;&lt;br style=&quot;border-color: var(--border-color);&quot;&gt;&lt;/div&gt;&lt;div style=&quot;border-color: var(--border-color); color: rgb(0, 0, 0); font-family: Helvetica; font-size: 12px; font-style: normal; font-variant-ligatures: normal; font-variant-caps: normal; font-weight: 400; letter-spacing: normal; orphans: 2; text-align: center; text-indent: 0px; text-transform: none; widows: 2; word-spacing: 0px; -webkit-text-stroke-width: 0px; background-color: rgb(251, 251, 251); text-decoration-thickness: initial; text-decoration-style: initial; text-decoration-color: initial;&quot;&gt;create_directories (dir.string() + &quot;.backup_util&quot;);&lt;br style=&quot;border-color: var(--border-color);&quot;&gt;&lt;/div&gt;&lt;div style=&quot;border-color: var(--border-color); color: rgb(0, 0, 0); font-family: Helvetica; font-size: 12px; font-style: normal; font-variant-ligatures: normal; font-variant-caps: normal; font-weight: 400; letter-spacing: normal; orphans: 2; text-align: center; text-indent: 0px; text-transform: none; widows: 2; word-spacing: 0px; -webkit-text-stroke-width: 0px; background-color: rgb(251, 251, 251); text-decoration-thickness: initial; text-decoration-style: initial; text-decoration-color: initial;&quot;&gt;create_directories (dir.string() + &quot;.backup_util/firebase&quot;);&amp;nbsp;&lt;br style=&quot;border-color: var(--border-color);&quot;&gt;&lt;/div&gt;&lt;div style=&quot;border-color: var(--border-color); color: rgb(0, 0, 0); font-family: Helvetica; font-size: 12px; font-style: normal; font-variant-ligatures: normal; font-variant-caps: normal; font-weight: 400; letter-spacing: normal; orphans: 2; text-align: center; text-indent: 0px; text-transform: none; widows: 2; word-spacing: 0px; -webkit-text-stroke-width: 0px; background-color: rgb(251, 251, 251); text-decoration-thickness: initial; text-decoration-style: initial; text-decoration-color: initial;&quot;&gt;create_directories (dir.string() + &quot;.backup_util/versions&quot;);&lt;br style=&quot;border-color: var(--border-color);&quot;&gt;&lt;/div&gt;&lt;div style=&quot;border-color: var(--border-color); color: rgb(0, 0, 0); font-family: Helvetica; font-size: 12px; font-style: normal; font-variant-ligatures: normal; font-variant-caps: normal; font-weight: 400; letter-spacing: normal; orphans: 2; text-align: center; text-indent: 0px; text-transform: none; widows: 2; word-spacing: 0px; -webkit-text-stroke-width: 0px; background-color: rgb(251, 251, 251); text-decoration-thickness: initial; text-decoration-style: initial; text-decoration-color: initial;&quot;&gt;&lt;br style=&quot;border-color: var(--border-color);&quot;&gt;&lt;/div&gt;&lt;div style=&quot;border-color: var(--border-color); color: rgb(0, 0, 0); font-family: Helvetica; font-size: 12px; font-style: normal; font-variant-ligatures: normal; font-variant-caps: normal; font-weight: 400; letter-spacing: normal; orphans: 2; text-align: center; text-indent: 0px; text-transform: none; widows: 2; word-spacing: 0px; -webkit-text-stroke-width: 0px; background-color: rgb(251, 251, 251); text-decoration-thickness: initial; text-decoration-style: initial; text-decoration-color: initial;&quot;&gt;where dir is the directory/path of the file&lt;br style=&quot;border-color: var(--border-color);&quot;&gt;&lt;/div&gt;&lt;br class=&quot;Apple-interchange-newline&quot;&gt;&lt;br&gt;" style="rounded=0;whiteSpace=wrap;html=1;" parent="1" vertex="1">
          <mxGeometry x="-1370" y="75" width="240" height="290" as="geometry" />
        </mxCell>
        <mxCell id="lzudfqjjJk2nV8cWTDHu-57" value="&lt;div style=&quot;font-family: Consolas, &amp;quot;Courier New&amp;quot;, monospace; font-size: 14px; line-height: 19px;&quot;&gt;&lt;div style=&quot;color: rgb(204, 204, 204); background-color: rgb(31, 31, 31); line-height: 19px;&quot;&gt;&lt;b&gt;load_backup_util&lt;/b&gt;&lt;/div&gt;&lt;/div&gt;&lt;div style=&quot;font-family: Consolas, &amp;quot;Courier New&amp;quot;, monospace; font-size: 14px; line-height: 19px;&quot;&gt;read json from give path&lt;/div&gt;&lt;div style=&quot;font-family: Consolas, &amp;quot;Courier New&amp;quot;, monospace; font-size: 14px; line-height: 19px;&quot;&gt;std::ifstream ifs(&quot;./.backup_util/&lt;/div&gt;&lt;div style=&quot;font-family: Consolas, &amp;quot;Courier New&amp;quot;, monospace; font-size: 14px; line-height: 19px;&quot;&gt;versions/state.json&quot;)&lt;/div&gt;&lt;div style=&quot;font-family: Consolas, &amp;quot;Courier New&amp;quot;, monospace; font-size: 14px; line-height: 19px;&quot;&gt;&lt;br&gt;&lt;/div&gt;&lt;div style=&quot;font-family: Consolas, &amp;quot;Courier New&amp;quot;, monospace; font-size: 14px; line-height: 19px;&quot;&gt;&lt;br&gt;&lt;/div&gt;&lt;div style=&quot;font-family: Consolas, &amp;quot;Courier New&amp;quot;, monospace; font-size: 14px; line-height: 19px;&quot;&gt;fill in details of previous version&lt;/div&gt;" style="rounded=0;whiteSpace=wrap;html=1;" parent="1" vertex="1">
          <mxGeometry x="130" y="1060" width="500" height="255" as="geometry" />
        </mxCell>
        <mxCell id="lzudfqjjJk2nV8cWTDHu-60" value="&lt;div style=&quot;color: rgb(204, 204, 204); background-color: rgb(31, 31, 31); font-family: Consolas, &amp;quot;Courier New&amp;quot;, monospace; font-size: 14px; line-height: 19px;&quot;&gt;get_mod_files (&lt;span style=&quot;color: #4ec9b0;&quot;&gt;vector&lt;/span&gt;&amp;lt;&lt;span style=&quot;color: #4ec9b0;&quot;&gt;file_data&lt;/span&gt;&amp;gt; &lt;span style=&quot;color: #9cdcfe;&quot;&gt;prev_version&lt;/span&gt;)&lt;/div&gt;&lt;div style=&quot;font-family: Consolas, &amp;quot;Courier New&amp;quot;, monospace; font-size: 14px; line-height: 19px;&quot;&gt;&lt;span style=&quot;background-color: rgb(31, 31, 31);&quot;&gt;ad&lt;/span&gt;&lt;/div&gt;&lt;div style=&quot;font-family: Consolas, &amp;quot;Courier New&amp;quot;, monospace; font-size: 14px; line-height: 19px;&quot;&gt;&lt;span style=&quot;background-color: rgb(255, 255, 255);&quot;&gt;A file can be modified, deleted, added&lt;/span&gt;&lt;/div&gt;&lt;div style=&quot;font-family: Consolas, &amp;quot;Courier New&amp;quot;, monospace; font-size: 14px; line-height: 19px;&quot;&gt;&lt;span style=&quot;background-color: rgb(255, 255, 255);&quot;&gt;&lt;div style=&quot;line-height: 19px;&quot;&gt;For new files, we check based upon, if any file in current file&amp;nbsp;&lt;/div&gt;&lt;div style=&quot;line-height: 19px;&quot;&gt;list is not present in the previous version file list&lt;/div&gt;&lt;div style=&quot;line-height: 19px;&quot;&gt;&lt;div style=&quot;line-height: 19px;&quot;&gt;For files that have been deleted, we check the data,&amp;nbsp;&lt;/div&gt;&lt;div style=&quot;line-height: 19px;&quot;&gt;and if current_data&amp;lt;=0, we mark them deleted&lt;/div&gt;&lt;div style=&quot;line-height: 19px;&quot;&gt;and if updated time in current version is greater than the updated time&amp;nbsp;&lt;/div&gt;&lt;div style=&quot;line-height: 19px;&quot;&gt;in last version, we set it to be mdified file&lt;/div&gt;&lt;/div&gt;&lt;/span&gt;&lt;/div&gt;" style="rounded=0;whiteSpace=wrap;html=1;" parent="1" vertex="1">
          <mxGeometry x="220" y="1400" width="310" height="360" as="geometry" />
        </mxCell>
        <mxCell id="flPDdCEBCAuYjrAuzokw-47" style="edgeStyle=orthogonalEdgeStyle;rounded=0;orthogonalLoop=1;jettySize=auto;html=1;exitX=0;exitY=0.5;exitDx=0;exitDy=0;entryX=0;entryY=0.5;entryDx=0;entryDy=0;" edge="1" parent="1" source="lzudfqjjJk2nV8cWTDHu-64" target="lzudfqjjJk2nV8cWTDHu-67">
          <mxGeometry relative="1" as="geometry" />
        </mxCell>
        <mxCell id="lzudfqjjJk2nV8cWTDHu-64" value="&lt;br&gt;&lt;div style=&quot;color: rgb(204, 204, 204); background-color: rgb(31, 31, 31); font-family: Consolas, &amp;quot;Courier New&amp;quot;, monospace; font-weight: normal; font-size: 14px; line-height: 19px;&quot;&gt;&lt;div style=&quot;line-height: 19px;&quot;&gt;add_dir_version (&lt;span style=&quot;color: #4ec9b0;&quot;&gt;dir_struct&lt;/span&gt; &lt;span style=&quot;color: #569cd6;&quot;&gt;*&lt;/span&gt;&lt;span style=&quot;color: #9cdcfe;&quot;&gt;curr_version&lt;/span&gt;)&lt;/div&gt;&lt;/div&gt;&lt;br&gt;&lt;div style=&quot;color: rgb(204, 204, 204); background-color: rgb(31, 31, 31); font-family: Consolas, &amp;quot;Courier New&amp;quot;, monospace; font-size: 14px; line-height: 19px;&quot;&gt;save_files(&lt;span style=&quot;color: #569cd6;&quot;&gt;this&lt;/span&gt;-&amp;gt;&lt;span style=&quot;color: #9cdcfe;&quot;&gt;version_list&lt;/span&gt;.&lt;span style=&quot;color: #dcdcaa;&quot;&gt;size&lt;/span&gt;());&lt;/div&gt;&lt;div style=&quot;color: rgb(204, 204, 204); font-family: Consolas, &amp;quot;Courier New&amp;quot;, monospace; font-size: 14px; line-height: 19px;&quot;&gt;&lt;span style=&quot;background-color: rgb(255, 255, 255);&quot;&gt;&lt;br&gt;&lt;/span&gt;&lt;/div&gt;&lt;div style=&quot;color: rgb(204, 204, 204); background-color: rgb(31, 31, 31); font-family: Consolas, &amp;quot;Courier New&amp;quot;, monospace; font-size: 14px; line-height: 19px;&quot;&gt;dump_backup_util()&lt;br&gt;&lt;/div&gt;" style="rounded=0;whiteSpace=wrap;html=1;" parent="1" vertex="1">
          <mxGeometry x="-1530" y="810" width="310" height="340" as="geometry" />
        </mxCell>
        <mxCell id="lzudfqjjJk2nV8cWTDHu-67" value="&lt;br&gt;&lt;div style=&quot;color: rgb(204, 204, 204); background-color: rgb(31, 31, 31); font-family: Consolas, &amp;quot;Courier New&amp;quot;, monospace; font-weight: normal; font-size: 14px; line-height: 19px;&quot;&gt;&lt;div style=&quot;line-height: 19px;&quot;&gt;&lt;div style=&quot;line-height: 19px;&quot;&gt;save_files (&lt;span style=&quot;color: #569cd6;&quot;&gt;int&lt;/span&gt; &lt;span style=&quot;color: #9cdcfe;&quot;&gt;version_no&lt;/span&gt;)&lt;/div&gt;&lt;/div&gt;&lt;/div&gt;" style="rounded=0;whiteSpace=wrap;html=1;" parent="1" vertex="1">
          <mxGeometry x="-1540" y="1270" width="310" height="340" as="geometry" />
        </mxCell>
        <mxCell id="lzudfqjjJk2nV8cWTDHu-68" value="Text" style="text;html=1;strokeColor=none;fillColor=none;align=center;verticalAlign=middle;whiteSpace=wrap;rounded=0;" parent="1" vertex="1">
          <mxGeometry x="-200" y="380" width="60" height="30" as="geometry" />
        </mxCell>
        <mxCell id="flPDdCEBCAuYjrAuzokw-3" value="instance = new backup_util();&lt;br style=&quot;border-color: var(--border-color);&quot;&gt;&lt;div style=&quot;border-color: var(--border-color); line-height: 19px;&quot;&gt;&lt;div style=&quot;border-color: var(--border-color); font-family: Consolas, &amp;quot;Courier New&amp;quot;, monospace; font-size: 14px; color: rgb(204, 204, 204); background-color: rgb(31, 31, 31);&quot;&gt;&amp;nbsp; &amp;nbsp; &amp;nbsp; &amp;nbsp; instance-&amp;gt;&lt;span style=&quot;border-color: var(--border-color); color: rgb(220, 220, 170);&quot;&gt;load_backup_util&lt;/span&gt;&lt;span style=&quot;border-color: var(--border-color);&quot;&gt;&amp;nbsp;&lt;/span&gt;();&lt;/div&gt;&lt;div style=&quot;border-color: var(--border-color); line-height: 19px;&quot;&gt;&lt;br&gt;&lt;/div&gt;&lt;div style=&quot;border-color: var(--border-color); line-height: 19px;&quot;&gt;&lt;div style=&quot;color: rgb(204, 204, 204); background-color: rgb(31, 31, 31); font-family: Consolas, &amp;quot;Courier New&amp;quot;, monospace; font-size: 14px; line-height: 19px;&quot;&gt;push()&lt;/div&gt;&lt;/div&gt;&lt;div style=&quot;border-color: var(--border-color); line-height: 19px;&quot;&gt;&lt;br&gt;&lt;/div&gt;&lt;div style=&quot;border-color: var(--border-color); line-height: 19px;&quot;&gt;we make a check by checking the total no. of versions, with the number of&amp;nbsp; versions pushed&lt;/div&gt;&lt;div style=&quot;border-color: var(--border-color); line-height: 19px;&quot;&gt;&lt;div style=&quot;border-color: var(--border-color); line-height: 19px;&quot;&gt;with argument as &quot;&lt;b&gt;upload&lt;span style=&quot;border-color: var(--border-color);&quot;&gt;_file&lt;/span&gt;&lt;/b&gt;&quot;&lt;/div&gt;&lt;/div&gt;&lt;div style=&quot;border-color: var(--border-color); line-height: 19px;&quot;&gt;&lt;div style=&quot;color: rgb(204, 204, 204); background-color: rgb(31, 31, 31); font-family: Consolas, &amp;quot;Courier New&amp;quot;, monospace; font-size: 14px; line-height: 19px;&quot;&gt;remoteutil(&lt;span style=&quot;color: #b5cea8;&quot;&gt;5&lt;/span&gt;,&lt;span style=&quot;color: #9cdcfe;&quot;&gt;arguments&lt;/span&gt;);&lt;/div&gt;&lt;/div&gt;&lt;div style=&quot;border-color: var(--border-color); line-height: 19px;&quot;&gt;&lt;br&gt;&lt;/div&gt;&lt;div style=&quot;border-color: var(--border-color); line-height: 19px;&quot;&gt;&lt;div style=&quot;color: rgb(204, 204, 204); background-color: rgb(31, 31, 31); font-family: Consolas, &amp;quot;Courier New&amp;quot;, monospace; font-size: 14px; line-height: 19px;&quot;&gt;dump_backup_util()&lt;/div&gt;&lt;/div&gt;&lt;div style=&quot;border-color: var(--border-color); line-height: 19px;&quot;&gt;&lt;br&gt;&lt;/div&gt;&lt;div style=&quot;border-color: var(--border-color); line-height: 19px;&quot;&gt;In case we committed, but not pushed, so it will push all such versions, which are committed, but not pushed in firebase&lt;/div&gt;&lt;/div&gt;" style="text;html=1;strokeColor=none;fillColor=none;align=center;verticalAlign=middle;whiteSpace=wrap;rounded=0;" vertex="1" parent="1">
          <mxGeometry x="360" y="650" width="370" height="290" as="geometry" />
        </mxCell>
        <mxCell id="flPDdCEBCAuYjrAuzokw-6" value="&lt;br&gt;&lt;div style=&quot;color: rgb(204, 204, 204); background-color: rgb(31, 31, 31); font-family: Consolas, &amp;quot;Courier New&amp;quot;, monospace; font-weight: normal; font-size: 14px; line-height: 19px;&quot;&gt;&lt;div&gt;&lt;span style=&quot;color: #dcdcaa;&quot;&gt;dump_backup_util&lt;/span&gt;&lt;span style=&quot;color: #cccccc;&quot;&gt; ()&lt;/span&gt;&lt;/div&gt;&lt;/div&gt;&lt;br&gt;&lt;br&gt;&lt;br&gt;writes the current version (along with all the files in all earlier versions) state in the corresponding json file&lt;br&gt;std::ofstream ofs(&quot;./.backup_util/versions/state.json&quot;);&lt;br&gt;&lt;br&gt;&lt;br&gt;(in short every info of all the previous versions of each file gets dumped again, clearing the previous details of json file" style="rounded=0;whiteSpace=wrap;html=1;" vertex="1" parent="1">
          <mxGeometry x="2000" y="540" width="310" height="350" as="geometry" />
        </mxCell>
        <mxCell id="flPDdCEBCAuYjrAuzokw-10" value="Text" style="text;html=1;strokeColor=none;fillColor=none;align=center;verticalAlign=middle;whiteSpace=wrap;rounded=0;" vertex="1" parent="1">
          <mxGeometry x="920" y="480" width="60" height="30" as="geometry" />
        </mxCell>
        <mxCell id="flPDdCEBCAuYjrAuzokw-17" value="&lt;font style=&quot;font-size: 50px;&quot;&gt;Remote Uitl()&lt;br&gt;&lt;/font&gt;&lt;font style=&quot;font-size: 22px;&quot;&gt;A pathway to connect vetween cpp and python&amp;nbsp;&lt;br&gt;&lt;/font&gt;create_directories(&quot;./.backup_util/jsons/&quot;);&lt;br&gt;&lt;div&gt;&amp;nbsp;pid_t pid = fork();&lt;/div&gt;&lt;div&gt;&lt;br&gt;&lt;/div&gt;&lt;div&gt;a child process(pid==0)&lt;/div&gt;&lt;div&gt;&lt;div&gt;executes&lt;/div&gt;&lt;div&gt;/usr/local/bin/Python-Firebase/Firebase.py&lt;/div&gt;&lt;/div&gt;&lt;div&gt;&lt;br&gt;&lt;/div&gt;&lt;div&gt;It initializes, pushes the files and reloads the file when needed from the firebase&lt;/div&gt;" style="rounded=0;whiteSpace=wrap;html=1;" vertex="1" parent="1">
          <mxGeometry x="-1140" y="1990" width="3520" height="250" as="geometry" />
        </mxCell>
        <mxCell id="flPDdCEBCAuYjrAuzokw-27" style="edgeStyle=orthogonalEdgeStyle;rounded=0;orthogonalLoop=1;jettySize=auto;html=1;exitX=0;exitY=0.75;exitDx=0;exitDy=0;entryX=0.06;entryY=0;entryDx=0;entryDy=0;entryPerimeter=0;" edge="1" parent="1" source="lzudfqjjJk2nV8cWTDHu-4" target="flPDdCEBCAuYjrAuzokw-17">
          <mxGeometry relative="1" as="geometry" />
        </mxCell>
        <mxCell id="flPDdCEBCAuYjrAuzokw-28" style="edgeStyle=orthogonalEdgeStyle;rounded=0;orthogonalLoop=1;jettySize=auto;html=1;exitX=0;exitY=0.25;exitDx=0;exitDy=0;entryX=1.002;entryY=0.147;entryDx=0;entryDy=0;entryPerimeter=0;" edge="1" parent="1" source="lzudfqjjJk2nV8cWTDHu-4" target="lzudfqjjJk2nV8cWTDHu-48">
          <mxGeometry relative="1" as="geometry" />
        </mxCell>
        <mxCell id="flPDdCEBCAuYjrAuzokw-35" style="edgeStyle=orthogonalEdgeStyle;rounded=0;orthogonalLoop=1;jettySize=auto;html=1;exitX=1;exitY=0.75;exitDx=0;exitDy=0;entryX=-0.005;entryY=0.314;entryDx=0;entryDy=0;entryPerimeter=0;" edge="1" parent="1" source="flPDdCEBCAuYjrAuzokw-3" target="flPDdCEBCAuYjrAuzokw-6">
          <mxGeometry relative="1" as="geometry" />
        </mxCell>
        <mxCell id="flPDdCEBCAuYjrAuzokw-39" style="edgeStyle=orthogonalEdgeStyle;rounded=0;orthogonalLoop=1;jettySize=auto;html=1;exitX=1;exitY=0.75;exitDx=0;exitDy=0;entryX=1;entryY=0.194;entryDx=0;entryDy=0;entryPerimeter=0;" edge="1" parent="1" source="lzudfqjjJk2nV8cWTDHu-24" target="lzudfqjjJk2nV8cWTDHu-60">
          <mxGeometry relative="1" as="geometry">
            <Array as="points">
              <mxPoint x="1152" y="570" />
              <mxPoint x="1172" y="570" />
              <mxPoint x="1172" y="1470" />
            </Array>
          </mxGeometry>
        </mxCell>
        <mxCell id="flPDdCEBCAuYjrAuzokw-42" style="edgeStyle=orthogonalEdgeStyle;rounded=0;orthogonalLoop=1;jettySize=auto;html=1;exitX=1;exitY=0.25;exitDx=0;exitDy=0;entryX=0.318;entryY=0.006;entryDx=0;entryDy=0;entryPerimeter=0;" edge="1" parent="1" source="lzudfqjjJk2nV8cWTDHu-15" target="lzudfqjjJk2nV8cWTDHu-57">
          <mxGeometry relative="1" as="geometry">
            <Array as="points">
              <mxPoint x="261" y="700" />
              <mxPoint x="289" y="700" />
            </Array>
          </mxGeometry>
        </mxCell>
        <mxCell id="flPDdCEBCAuYjrAuzokw-43" style="edgeStyle=orthogonalEdgeStyle;rounded=0;orthogonalLoop=1;jettySize=auto;html=1;exitX=-0.001;exitY=0.145;exitDx=0;exitDy=0;entryX=0.38;entryY=0.039;entryDx=0;entryDy=0;entryPerimeter=0;exitPerimeter=0;" edge="1" parent="1" source="flPDdCEBCAuYjrAuzokw-3" target="lzudfqjjJk2nV8cWTDHu-57">
          <mxGeometry relative="1" as="geometry" />
        </mxCell>
        <mxCell id="flPDdCEBCAuYjrAuzokw-45" style="edgeStyle=orthogonalEdgeStyle;rounded=0;orthogonalLoop=1;jettySize=auto;html=1;exitX=0;exitY=0.25;exitDx=0;exitDy=0;entryX=1.006;entryY=0.841;entryDx=0;entryDy=0;entryPerimeter=0;" edge="1" parent="1" source="lzudfqjjJk2nV8cWTDHu-6" target="lzudfqjjJk2nV8cWTDHu-57">
          <mxGeometry relative="1" as="geometry">
            <Array as="points">
              <mxPoint x="1200" y="150" />
              <mxPoint x="1200" y="1275" />
            </Array>
          </mxGeometry>
        </mxCell>
        <mxCell id="flPDdCEBCAuYjrAuzokw-48" value="&lt;br&gt;&lt;div style=&quot;color: rgb(204, 204, 204); background-color: rgb(31, 31, 31); font-family: Consolas, &amp;quot;Courier New&amp;quot;, monospace; font-weight: normal; font-size: 14px; line-height: 19px;&quot;&gt;&lt;div style=&quot;line-height: 19px;&quot;&gt;&lt;div style=&quot;line-height: 19px;&quot;&gt;load_files (&lt;span style=&quot;color: #569cd6;&quot;&gt;int&lt;/span&gt; &lt;span style=&quot;color: #9cdcfe;&quot;&gt;version_no&lt;/span&gt;)&lt;/div&gt;&lt;/div&gt;&lt;/div&gt;" style="rounded=0;whiteSpace=wrap;html=1;" vertex="1" parent="1">
          <mxGeometry x="-1680" y="440" width="310" height="340" as="geometry" />
        </mxCell>
      </root>
    </mxGraphModel>
  </diagram>
</mxfile>
